<?xml version="1.0" standalone="no"?>
<!DOCTYPE svg PUBLIC "-//W3C//DTD SVG 20010904//EN"
 "http://www.w3.org/TR/2001/REC-SVG-20010904/DTD/svg10.dtd">
<svg version="1.0" xmlns="http://www.w3.org/2000/svg"
 width="246.000000pt" height="246.000000pt" viewBox="0 0 246.000000 246.000000"
 preserveAspectRatio="xMidYMid meet">
<metadata>
Created by potrace 1.11, written by Peter Selinger 2001-2013
</metadata>
<g transform="translate(0.000000,246.000000) scale(0.100000,-0.100000)"
fill="#000000" stroke="none">
<path d="M1100 2240 c-6 -4 -13 -20 -16 -36 -8 -43 -17 -47 -39 -14 -22 33
-36 36 -84 19 -27 -10 -31 -15 -31 -49 0 -50 -11 -56 -44 -25 -32 30 -35 30
-75 8 -34 -20 -35 -24 -22 -71 8 -27 7 -32 -8 -32 -9 0 -26 7 -37 15 -27 20
-40 19 -69 -10 -29 -30 -30 -36 -10 -75 18 -34 7 -44 -30 -30 -40 15 -49 13
-74 -20 l-22 -31 22 -35 c12 -19 18 -38 15 -42 -4 -3 -25 -5 -46 -3 -22 1 -40
0 -40 -2 0 -3 -7 -21 -15 -40 -14 -34 -14 -37 11 -67 15 -17 25 -32 23 -34 -2
-2 -19 -6 -37 -9 -42 -7 -41 -5 -48 -59 -6 -44 -5 -47 26 -63 36 -18 35 -20
-11 -43 -28 -15 -33 -22 -34 -55 -1 -47 3 -53 45 -70 l34 -15 -33 -17 c-31
-16 -33 -20 -28 -56 7 -52 22 -69 62 -69 l33 0 -29 -30 c-29 -29 -29 -30 -14
-66 24 -57 31 -63 70 -54 26 6 32 5 28 -6 -4 -10 -59 -13 -276 -13 -150 0
-278 -1 -285 -1 -22 0 -11 -60 13 -65 11 -2 148 -3 304 -2 l284 2 22 35 c22
34 22 37 6 73 -16 37 -40 53 -73 48 -24 -3 -23 14 3 31 20 13 20 16 8 56 -7
24 -22 48 -33 54 -12 6 -22 11 -23 10 -2 -1 -9 -2 -15 -2 -7 0 1 8 17 19 28
16 30 22 27 60 -3 33 -10 44 -32 56 -15 8 -30 11 -34 8 -3 -4 -6 -1 -6 5 0 7
8 12 18 12 30 1 49 24 54 64 4 34 1 40 -31 62 l-36 24 30 0 c41 0 54 10 65 51
14 48 13 57 -9 64 -11 3 -22 13 -25 21 -5 12 1 14 29 10 31 -5 37 -2 60 31 30
46 31 51 3 80 l-22 23 47 -6 c31 -5 47 -3 47 4 0 6 10 20 21 31 21 19 21 31 3
75 -7 19 -7 19 23 1 30 -18 32 -18 66 4 42 26 49 40 37 82 l-10 32 29 -27 c27
-26 32 -27 64 -17 43 15 61 35 54 61 -8 31 9 33 30 4 18 -24 24 -26 62 -19 36
6 43 11 48 36 8 41 19 44 32 8 10 -29 13 -30 58 -27 44 3 49 6 63 36 l14 33
11 -38 c10 -34 15 -39 54 -47 41 -9 46 -8 68 18 l23 27 0 -34 c0 -28 5 -36 35
-50 47 -22 64 -21 87 6 l20 22 -7 -35 c-6 -33 -3 -38 32 -67 37 -29 41 -30 66
-16 27 14 27 13 21 -12 -6 -24 1 -39 40 -89 13 -15 20 -17 45 -8 l31 11 -17
-25 c-15 -24 -15 -28 5 -70 19 -38 26 -44 54 -44 l32 0 -21 -20 c-19 -17 -20
-24 -11 -57 13 -50 25 -63 57 -63 l26 0 -28 -23 c-25 -19 -28 -28 -25 -62 3
-34 9 -43 37 -57 l34 -17 -27 -7 c-32 -8 -46 -31 -46 -78 0 -29 5 -38 30 -51
28 -15 39 -26 23 -24 -36 6 -64 -3 -72 -23 -22 -59 -22 -66 4 -96 l25 -30 -39
5 c-37 5 -40 4 -59 -33 l-20 -39 29 -41 28 -42 296 1 c197 0 298 4 304 11 5 6
5 21 0 34 -9 25 17 23 -376 22 -114 0 -203 4 -203 9 0 5 19 8 42 7 39 -1 44 2
60 34 22 45 22 57 0 64 -9 3 -23 15 -29 25 -11 18 -9 20 31 26 41 7 43 9 53
52 11 45 10 45 -23 65 -19 11 -34 23 -34 27 0 5 18 15 39 23 38 15 40 18 39
58 0 39 -3 43 -42 59 l-41 18 38 24 c21 14 35 30 32 37 -3 8 -5 22 -5 32 0 27
-27 50 -61 50 -36 0 -37 12 -2 39 25 21 26 23 13 62 -16 47 -32 58 -79 52
l-35 -5 27 35 26 34 -24 34 c-33 43 -44 49 -72 38 -39 -15 -44 -11 -28 21 21
41 20 43 -27 77 l-43 30 -32 -19 -32 -19 10 36 c12 43 8 50 -43 76 -40 20 -40
20 -62 1 -37 -33 -42 -32 -38 9 4 35 1 40 -24 50 -63 23 -78 22 -99 -10 -22
-35 -35 -31 -35 9 0 35 -7 39 -64 46 -43 6 -45 5 -61 -30 -10 -20 -19 -36 -21
-36 -2 0 -11 16 -20 35 -15 33 -20 35 -55 33 -22 -1 -44 -5 -49 -8z"/>
<path d="M1071 2061 c-124 -43 -129 -50 -126 -173 2 -81 -8 -108 -40 -108 -8
0 -21 -10 -29 -22 -13 -18 -16 -54 -16 -185 l0 -163 36 -40 c19 -21 44 -42 55
-45 11 -4 18 -15 18 -28 -1 -12 2 -61 6 -109 6 -76 5 -89 -9 -94 -24 -9 -44
-54 -40 -92 1 -19 4 -36 6 -38 2 -2 63 -25 136 -52 l131 -48 -21 -21 c-17 -17
-21 -35 -23 -90 -2 -102 33 -150 113 -157 39 -4 101 16 114 37 11 17 10 61 -2
73 -6 6 -6 20 2 40 6 17 8 42 5 57 -9 32 -56 67 -96 70 -36 3 -31 12 14 27 33
11 35 14 35 56 l0 44 37 -15 c34 -14 41 -14 100 6 35 11 67 28 71 37 21 42 -8
128 -51 151 -20 11 -26 23 -30 65 -6 54 -4 92 5 101 7 8 71 -16 83 -31 6 -7
33 -22 60 -32 47 -18 53 -19 98 -4 37 12 47 20 47 36 0 12 -5 27 -12 34 -8 8
-8 15 2 26 19 23 4 64 -30 81 -17 9 -30 13 -30 10 0 -3 -9 -1 -20 5 -10 6 -37
12 -58 14 -41 4 -82 21 -82 35 0 4 -11 13 -24 19 -37 16 -66 88 -66 161 0 74
-10 97 -48 105 l-27 7 0 95 c1 112 -4 122 -80 148 -27 10 -61 23 -75 29 -14 6
-27 12 -30 13 -3 1 -52 -15 -109 -35z m219 -1278 c0 -7 -9 -13 -20 -13 -12 0
-17 5 -14 13 3 8 11 14 19 14 8 0 15 -6 15 -14z m35 -93 c-3 -5 -23 -9 -43 -9
l-37 2 40 7 c22 4 41 8 43 9 2 0 0 -3 -3 -9z"/>
<path d="M20 800 c0 -203 -2 -200 133 -200 50 0 97 4 103 8 6 4 16 21 22 37 8
23 11 25 11 9 1 -11 9 -28 19 -37 22 -20 72 -23 73 -4 0 6 2 50 2 96 2 79 3
84 25 87 20 4 22 0 23 -44 1 -129 12 -152 71 -152 l28 0 0 101 c0 55 -5 109
-11 121 -18 33 -79 54 -154 52 -37 -1 -71 -7 -74 -12 -3 -6 -5 -49 -4 -96 l1
-86 -83 0 -83 0 -4 35 -4 35 51 0 c63 0 97 21 93 58 -3 26 -5 27 -70 26 -65
-1 -68 0 -68 22 0 23 3 24 65 24 58 0 66 3 81 25 32 48 17 55 -121 55 l-125 0
0 -160z"/>
<path d="M801 950 c-7 -4 -12 -22 -10 -41 3 -52 0 -83 -8 -75 -5 4 -8 13 -8
19 0 15 -129 26 -173 14 -49 -12 -61 -39 -60 -137 1 -47 5 -93 10 -102 5 -11
4 -25 -3 -37 -20 -30 5 -78 48 -92 85 -28 180 11 187 77 5 39 -9 63 -47 80
-30 13 -31 14 -10 20 22 6 56 61 47 76 -3 4 -1 8 4 8 5 0 9 -27 9 -60 0 -63
16 -93 53 -103 36 -9 41 6 42 122 1 96 -2 114 -18 133 -10 12 -14 18 -8 15 13
-7 24 13 24 43 0 31 -51 58 -79 40z m-11 -145 c0 -8 -4 -15 -10 -15 -5 0 -7 7
-4 15 4 8 8 15 10 15 2 0 4 -7 4 -15z m-112 -35 c-2 -18 -9 -25 -24 -26 -15
-1 -21 4 -19 15 2 9 4 21 4 26 1 6 10 11 21 11 16 0 20 -6 18 -26z m7 -190
c-3 -5 -24 -10 -45 -10 -21 0 -42 5 -45 10 -4 6 13 10 45 10 32 0 49 -4 45
-10z"/>
<path d="M1842 943 c-5 -9 -6 -29 -2 -44 10 -32 -9 -56 -28 -37 -10 10 -61 12
-137 6 l-30 -3 -2 -110 c-2 -131 9 -158 60 -153 l32 3 3 93 c2 83 5 92 22 92
11 0 24 -9 30 -21 10 -19 13 -19 28 -6 16 14 17 11 15 -50 -1 -36 1 -72 4 -80
9 -23 56 -43 76 -32 14 9 17 27 17 122 0 72 -4 117 -12 125 -8 8 -8 15 1 25
12 16 10 52 -5 66 -20 19 -63 21 -72 4z"/>
<path d="M953 872 l-53 -3 0 -112 c0 -83 4 -118 15 -134 17 -24 62 -36 73 -19
4 6 7 48 8 92 2 90 6 103 32 101 15 -1 18 -12 19 -80 2 -89 17 -117 65 -117
32 0 31 -6 29 120 -1 81 -4 97 -23 117 -21 23 -70 43 -98 40 -8 -1 -39 -3 -67
-5z"/>
<path d="M1452 864 c-41 -17 -53 -44 -53 -117 0 -77 13 -113 49 -134 25 -14
27 -21 26 -66 l-2 -51 -40 -1 c-51 -1 -91 -28 -99 -65 -3 -17 -10 -30 -15 -30
-6 0 -8 12 -5 26 3 18 -2 33 -14 45 -16 16 -16 19 -3 19 11 0 14 9 12 37 -3
32 -7 38 -37 45 -41 11 -46 7 -48 -45 -5 -141 -4 -257 1 -266 4 -6 5 -11 3
-11 -3 0 -17 24 -32 54 -15 30 -40 67 -56 82 -27 26 -27 28 -11 43 17 16 58
76 81 118 10 19 8 24 -10 33 -37 20 -82 4 -104 -37 -19 -35 -52 -73 -64 -73
-3 0 -6 19 -6 42 0 36 -4 44 -33 61 -59 35 -62 27 -62 -157 0 -164 0 -166 24
-182 14 -8 35 -14 48 -12 24 3 24 4 27 122 l1 29 26 -24 c14 -13 35 -42 46
-64 12 -22 28 -45 37 -52 20 -15 73 -17 88 -2 8 8 13 8 17 0 4 -6 20 -11 37
-11 32 0 31 -4 32 103 1 77 13 93 14 17 1 -80 52 -129 128 -122 11 1 41 2 68
3 l47 1 1 86 c0 70 2 83 11 65 6 -13 16 -23 21 -23 6 0 2 -9 -7 -19 -24 -26
-17 -70 14 -93 44 -32 141 -26 181 11 27 25 32 75 10 103 -16 20 -17 25 -4 55
13 32 12 35 -12 57 -31 29 -93 40 -144 26 -44 -12 -57 -24 -64 -60 -2 -14 -5
11 -6 55 0 47 -6 86 -13 93 -13 13 -15 12 35 35 32 14 37 21 37 50 0 18 -4 37
-10 43 -6 6 -6 21 2 42 32 83 -75 156 -170 116z m72 -81 c-21 -15 -34 -17 -34
-4 0 10 17 18 39 18 9 0 8 -4 -5 -14z m32 -97 c-16 -8 -39 -11 -50 -7 -16 4
-12 7 19 12 59 9 63 9 31 -5z m-85 -301 c0 -16 2 -38 4 -48 2 -9 -4 -24 -12
-32 -22 -22 -41 -3 -41 43 -1 53 6 71 28 69 15 -1 20 -9 21 -32z m279 13 c0
-6 -7 -7 -16 -4 -9 3 -28 6 -42 6 -18 0 -23 3 -14 8 16 11 72 3 72 -10z m-52
-78 c19 0 23 -3 15 -11 -14 -14 -65 -7 -71 10 -3 10 0 12 12 8 10 -4 29 -7 44
-7z"/>
<path d="M2047 874 c-2 -3 -25 -5 -51 -6 -26 0 -46 -5 -47 -12 -1 -6 0 -58 0
-116 2 -116 12 -140 63 -140 31 0 30 -6 31 112 0 77 7 91 37 79 12 -5 15 -24
15 -84 0 -87 12 -107 67 -107 l28 0 0 101 c0 111 -7 132 -51 154 -31 16 -84
27 -92 19z"/>
<path d="M2251 864 c-17 -7 -35 -24 -40 -37 -8 -20 -8 -167 0 -212 1 -5 -2
-22 -6 -37 -6 -23 -2 -33 25 -59 30 -30 34 -31 94 -27 77 7 103 22 118 70 9
31 8 41 -5 62 -9 13 -26 27 -37 31 -22 7 -27 25 -7 25 25 0 45 53 46 123 l1
67 -58 1 c-31 1 -67 3 -78 4 -12 1 -36 -4 -53 -11z m89 -90 c0 -13 -5 -26 -12
-30 -16 -10 -40 26 -28 41 17 20 40 13 40 -11z m4 -195 c-8 -13 -70 -11 -82 4
-8 9 0 11 39 9 27 -2 46 -8 43 -13z"/>
<path d="M1847 472 c-34 -37 -7 -89 40 -77 46 11 56 42 23 75 -25 25 -42 25
-63 2z"/>
<path d="M345 462 c-3 -7 -5 -58 -5 -112 0 -107 11 -134 54 -128 18 3 21 10
21 50 0 45 1 47 32 50 27 3 33 0 33 -15 0 -26 27 -74 45 -81 34 -13 95 -6 114
13 18 18 19 18 35 -1 10 -11 26 -18 39 -16 20 3 22 9 23 60 1 65 8 80 27 54
11 -15 15 -15 24 -4 6 7 14 23 18 36 5 19 1 25 -28 37 -43 18 -111 13 -115 -7
-3 -13 -8 -13 -40 3 -43 22 -78 24 -112 4 -29 -16 -90 -20 -90 -5 0 6 15 10
33 10 37 0 51 8 60 32 9 25 -9 32 -90 33 -53 1 -74 -2 -78 -13z m243 -144 c-4
-45 -33 -47 -33 -2 0 26 4 34 18 34 14 0 18 -7 15 -32z"/>
</g>
</svg>
